solid 
 facet normal  0.000000e+00 -0.000000e+00 -1.000000e+00
   outer loop
     vertex  3.500000e+02  7.000000e+01 -4.000000e+02
     vertex  3.500000e+02  0.000000e+00 -4.000000e+02
     vertex -3.500000e+02  0.000000e+00 -4.000000e+02
   endloop
 endfacet
 facet normal -0.000000e+00  0.000000e+00 -1.000000e+00
   outer loop
     vertex  3.500000e+02  7.000000e+01 -4.000000e+02
     vertex -3.500000e+02  0.000000e+00 -4.000000e+02
     vertex -3.500000e+02  7.000000e+01 -4.000000e+02
   endloop
 endfacet
endsolid
