solid 
 facet normal  9.342483e-01  6.663129e-02  3.503431e-01
   outer loop
     vertex  2.243329e+02  7.000000e+01 -6.488766e+01
     vertex  3.500000e+02  7.000000e+01 -4.000000e+02
     vertex  3.496156e+02  7.398899e+01 -3.997336e+02
   endloop
 endfacet
 facet normal  9.171228e-01  2.018432e-01  3.437224e-01
   outer loop
     vertex  2.236286e+02  7.667563e+01 -6.515176e+01
     vertex  3.496156e+02  7.398899e+01 -3.997336e+02
     vertex  3.483967e+02  7.808892e+01 -3.988889e+02
   endloop
 endfacet
 facet normal  9.302630e-01  1.119645e-01  3.493920e-01
   outer loop
     vertex  2.236286e+02  7.667563e+01 -6.515176e+01
     vertex  2.243329e+02  7.000000e+01 -6.488766e+01
     vertex  3.496156e+02  7.398899e+01 -3.997336e+02
   endloop
 endfacet
 facet normal  7.983366e-01  5.225616e-01  2.993127e-01
   outer loop
     vertex  2.215511e+02  8.301651e+01 -6.593082e+01
     vertex  3.458385e+02  8.283432e+01 -3.971161e+02
     vertex  3.409738e+02  8.833530e+01 -3.937448e+02
   endloop
 endfacet
 facet normal  8.771072e-01  3.499464e-01  3.289687e-01
   outer loop
     vertex  2.215511e+02  8.301651e+01 -6.593082e+01
     vertex  3.483967e+02  7.808892e+01 -3.988889e+02
     vertex  3.458385e+02  8.283432e+01 -3.971161e+02
   endloop
 endfacet
 facet normal  8.836593e-01  3.302790e-01  3.317559e-01
   outer loop
     vertex  2.215511e+02  8.301651e+01 -6.593082e+01
     vertex  2.236286e+02  7.667563e+01 -6.515176e+01
     vertex  3.483967e+02  7.808892e+01 -3.988889e+02
   endloop
 endfacet
 facet normal  6.599152e-01  7.094780e-01  2.472913e-01
   outer loop
     vertex  2.182045e+02  8.870469e+01 -6.718578e+01
     vertex  3.409738e+02  8.833530e+01 -3.937448e+02
     vertex  3.329487e+02  9.386130e+01 -3.881835e+02
   endloop
 endfacet
 facet normal  7.927633e-01  5.320321e-01  2.974360e-01
   outer loop
     vertex  2.182045e+02  8.870469e+01 -6.718578e+01
     vertex  2.215511e+02  8.301651e+01 -6.593082e+01
     vertex  3.409738e+02  8.833530e+01 -3.937448e+02
   endloop
 endfacet
 facet normal  6.621684e-01  7.071068e-01  2.480586e-01
   outer loop
     vertex  2.137567e+02  9.345494e+01 -6.885370e+01
     vertex  2.182045e+02  8.870469e+01 -6.718578e+01
     vertex  3.329487e+02  9.386130e+01 -3.881835e+02
   endloop
 endfacet
 facet normal  4.404931e-01  8.826430e-01  1.640340e-01
   outer loop
     vertex  2.084307e+02  9.702907e+01 -7.085096e+01
     vertex  3.329487e+02  9.386130e+01 -3.881835e+02
     vertex  3.207482e+02  9.837879e+01 -3.797285e+02
   endloop
 endfacet
 facet normal  4.980884e-01  8.467242e-01  1.869923e-01
   outer loop
     vertex  2.084307e+02  9.702907e+01 -7.085096e+01
     vertex  2.137567e+02  9.345494e+01 -6.885370e+01
     vertex  3.329487e+02  9.386130e+01 -3.881835e+02
   endloop
 endfacet
 facet normal  1.528553e-01  9.866522e-01  5.614981e-02
   outer loop
     vertex  2.024936e+02  9.924784e+01 -7.307739e+01
     vertex  3.207482e+02  9.837879e+01 -3.797285e+02
     vertex  3.067100e+02  1.000000e+02 -3.700000e+02
   endloop
 endfacet
 facet normal  3.090490e-01  9.438832e-01  1.165044e-01
   outer loop
     vertex  2.024936e+02  9.924784e+01 -7.307739e+01
     vertex  2.084307e+02  9.702907e+01 -7.085096e+01
     vertex  3.207482e+02  9.837879e+01 -3.797285e+02
   endloop
 endfacet
 facet normal  1.048356e-01  9.937122e-01  3.931335e-02
   outer loop
     vertex  1.962430e+02  1.000000e+02 -7.542136e+01
     vertex  2.024936e+02  9.924784e+01 -7.307739e+01
     vertex  3.067100e+02  1.000000e+02 -3.700000e+02
   endloop
 endfacet
endsolid
