solid 
 facet normal  9.024626e-01  3.331879e-16  4.307683e-01
   outer loop
     vertex  2.243329e+02  0.000000e+00 -6.488766e+01
     vertex  2.243329e+02  7.000000e+01 -6.488766e+01
     vertex  2.168836e+02  7.000000e+01 -4.928134e+01
   endloop
 endfacet
 facet normal  9.024626e-01  4.372561e-17  4.307683e-01
   outer loop
     vertex  2.168836e+02  0.000000e+00 -4.928134e+01
     vertex  2.243329e+02  0.000000e+00 -6.488766e+01
     vertex  2.168836e+02  7.000000e+01 -4.928134e+01
   endloop
 endfacet
 facet normal  8.147546e-01  1.907898e-16  5.798059e-01
   outer loop
     vertex  2.068570e+02  0.000000e+00 -3.519176e+01
     vertex  2.168836e+02  7.000000e+01 -4.928134e+01
     vertex  2.068570e+02  7.000000e+01 -3.519176e+01
   endloop
 endfacet
 facet normal  8.147546e-01  7.043723e-17  5.798059e-01
   outer loop
     vertex  2.068570e+02  0.000000e+00 -3.519176e+01
     vertex  2.168836e+02  0.000000e+00 -4.928134e+01
     vertex  2.168836e+02  7.000000e+01 -4.928134e+01
   endloop
 endfacet
 facet normal  7.026815e-01  1.301148e-16  7.115045e-01
   outer loop
     vertex  1.945529e+02  0.000000e+00 -2.304027e+01
     vertex  2.068570e+02  7.000000e+01 -3.519176e+01
     vertex  1.945529e+02  7.000000e+01 -2.304027e+01
   endloop
 endfacet
 facet normal  7.026815e-01  0.000000e+00  7.115045e-01
   outer loop
     vertex  1.945529e+02  0.000000e+00 -2.304027e+01
     vertex  2.068570e+02  0.000000e+00 -3.519176e+01
     vertex  2.068570e+02  7.000000e+01 -3.519176e+01
   endloop
 endfacet
 facet normal  5.695948e-01  3.484069e-16  8.219256e-01
   outer loop
     vertex  1.803393e+02  0.000000e+00 -1.319025e+01
     vertex  1.945529e+02  7.000000e+01 -2.304027e+01
     vertex  1.803393e+02  7.000000e+01 -1.319025e+01
   endloop
 endfacet
 facet normal  5.695948e-01 -2.582698e-16  8.219256e-01
   outer loop
     vertex  1.803393e+02  0.000000e+00 -1.319025e+01
     vertex  1.945529e+02  0.000000e+00 -2.304027e+01
     vertex  1.945529e+02  7.000000e+01 -2.304027e+01
   endloop
 endfacet
 facet normal  4.194745e-01  5.695000e-16  9.077671e-01
   outer loop
     vertex  1.646413e+02  0.000000e+00 -5.936264e+00
     vertex  1.803393e+02  7.000000e+01 -1.319025e+01
     vertex  1.646413e+02  7.000000e+01 -5.936264e+00
   endloop
 endfacet
 facet normal  4.194745e-01 -2.934885e-16  9.077671e-01
   outer loop
     vertex  1.646413e+02  0.000000e+00 -5.936264e+00
     vertex  1.803393e+02  0.000000e+00 -1.319025e+01
     vertex  1.803393e+02  7.000000e+01 -1.319025e+01
   endloop
 endfacet
 facet normal  2.568097e-01  6.873185e-16  9.664620e-01
   outer loop
     vertex  1.479282e+02  0.000000e+00 -1.495245e+00
     vertex  1.646413e+02  7.000000e+01 -5.936264e+00
     vertex  1.479282e+02  7.000000e+01 -1.495245e+00
   endloop
 endfacet
 facet normal  2.568097e-01 -3.169675e-16  9.664620e-01
   outer loop
     vertex  1.479282e+02  0.000000e+00 -1.495245e+00
     vertex  1.646413e+02  0.000000e+00 -5.936264e+00
     vertex  1.646413e+02  7.000000e+01 -5.936264e+00
   endloop
 endfacet
 facet normal  8.646516e-02 -1.053209e-16  9.962549e-01
   outer loop
     vertex  1.307000e+02  0.000000e+00  0.000000e+00
     vertex  1.479282e+02  7.000000e+01 -1.495245e+00
     vertex  1.307000e+02  7.000000e+01  0.000000e+00
   endloop
 endfacet
 facet normal  8.646516e-02 -4.490373e-16  9.962549e-01
   outer loop
     vertex  1.307000e+02  0.000000e+00  0.000000e+00
     vertex  1.479282e+02  0.000000e+00 -1.495245e+00
     vertex  1.479282e+02  7.000000e+01 -1.495245e+00
   endloop
 endfacet
endsolid
