solid 
 facet normal  8.592551e-02  1.115504e-01  9.900370e-01
   outer loop
     vertex  1.479282e+02  7.000000e+01 -1.495245e+00
     vertex  1.307000e+02  7.667563e+01 -7.521626e-01
     vertex  1.307000e+02  7.000000e+01  0.000000e+00
   endloop
 endfacet
 facet normal  8.968301e-01  1.115504e-01  4.280798e-01
   outer loop
     vertex  2.236286e+02  7.667563e+01 -6.515176e+01
     vertex  2.168836e+02  7.000000e+01 -4.928134e+01
     vertex  2.243329e+02  7.000000e+01 -6.488766e+01
   endloop
 endfacet
 facet normal  2.552069e-01  1.115504e-01  9.604301e-01
   outer loop
     vertex  1.477986e+02  7.667563e+01 -2.236161e+00
     vertex  1.479282e+02  7.000000e+01 -1.495245e+00
     vertex  1.646413e+02  7.000000e+01 -5.936264e+00
   endloop
 endfacet
 facet normal  8.592551e-02  1.115504e-01  9.900370e-01
   outer loop
     vertex  1.477986e+02  7.667563e+01 -2.236161e+00
     vertex  1.307000e+02  7.667563e+01 -7.521626e-01
     vertex  1.479282e+02  7.000000e+01 -1.495245e+00
   endloop
 endfacet
 facet normal  8.164632e-02  3.291764e-01  9.407320e-01
   outer loop
     vertex  1.474164e+02  8.301651e+01 -4.421756e+00
     vertex  1.307000e+02  8.301651e+01 -2.970934e+00
     vertex  1.307000e+02  7.667563e+01 -7.521626e-01
   endloop
 endfacet
 facet normal  8.164632e-02  3.291764e-01  9.407320e-01
   outer loop
     vertex  1.474164e+02  8.301651e+01 -4.421756e+00
     vertex  1.307000e+02  7.667563e+01 -7.521626e-01
     vertex  1.477986e+02  7.667563e+01 -2.236161e+00
   endloop
 endfacet
 facet normal  7.328973e-02  5.306013e-01  8.444471e-01
   outer loop
     vertex  1.468006e+02  8.870469e+01 -7.942436e+00
     vertex  1.307000e+02  8.870469e+01 -6.545056e+00
     vertex  1.307000e+02  8.301651e+01 -2.970934e+00
   endloop
 endfacet
 facet normal  7.328973e-02  5.306013e-01  8.444471e-01
   outer loop
     vertex  1.468006e+02  8.870469e+01 -7.942436e+00
     vertex  1.307000e+02  8.301651e+01 -2.970934e+00
     vertex  1.474164e+02  8.301651e+01 -4.421756e+00
   endloop
 endfacet
 facet normal  2.552069e-01  1.115504e-01  9.604301e-01
   outer loop
     vertex  1.643860e+02  7.667563e+01 -6.643776e+00
     vertex  1.477986e+02  7.667563e+01 -2.236161e+00
     vertex  1.646413e+02  7.000000e+01 -5.936264e+00
   endloop
 endfacet
 facet normal  4.186507e-01  6.263828e-02  9.059846e-01
   outer loop
     vertex  1.697150e+02  7.667563e+01 -8.742349e+00
     vertex  1.646413e+02  7.000000e+01 -5.936264e+00
     vertex  1.803393e+02  7.000000e+01 -1.319025e+01
   endloop
 endfacet
 facet normal  3.641108e-01  1.119184e-01  9.246067e-01
   outer loop
     vertex  1.697150e+02  7.667563e+01 -8.742349e+00
     vertex  1.643860e+02  7.667563e+01 -6.643776e+00
     vertex  1.646413e+02  7.000000e+01 -5.936264e+00
   endloop
 endfacet
 facet normal  6.125470e-02  7.057790e-01  7.057790e-01
   outer loop
     vertex  1.459822e+02  9.345494e+01 -1.262166e+01
     vertex  1.307000e+02  9.345494e+01 -1.129531e+01
     vertex  1.307000e+02  8.870469e+01 -6.545056e+00
   endloop
 endfacet
 facet normal  6.125470e-02  7.057790e-01  7.057790e-01
   outer loop
     vertex  1.459822e+02  9.345494e+01 -1.262166e+01
     vertex  1.307000e+02  8.870469e+01 -6.545056e+00
     vertex  1.468006e+02  8.870469e+01 -7.942436e+00
   endloop
 endfacet
 facet normal  3.458667e-01  3.301565e-01  8.782784e-01
   outer loop
     vertex  1.636329e+02  8.301651e+01 -8.730835e+00
     vertex  1.643860e+02  7.667563e+01 -6.643776e+00
     vertex  1.697150e+02  7.667563e+01 -8.742349e+00
   endloop
 endfacet
 facet normal  2.424973e-01  3.291764e-01  9.125996e-01
   outer loop
     vertex  1.636329e+02  8.301651e+01 -8.730835e+00
     vertex  1.474164e+02  8.301651e+01 -4.421756e+00
     vertex  1.477986e+02  7.667563e+01 -2.236161e+00
   endloop
 endfacet
 facet normal  2.424973e-01  3.291764e-01  9.125996e-01
   outer loop
     vertex  1.636329e+02  8.301651e+01 -8.730835e+00
     vertex  1.477986e+02  7.667563e+01 -2.236161e+00
     vertex  1.643860e+02  7.667563e+01 -6.643776e+00
   endloop
 endfacet
 facet normal  3.458667e-01  3.301565e-01  8.782784e-01
   outer loop
     vertex  1.688428e+02  8.301651e+01 -1.078249e+01
     vertex  1.636329e+02  8.301651e+01 -8.730835e+00
     vertex  1.697150e+02  7.667563e+01 -8.742349e+00
   endloop
 endfacet
 facet normal  4.612602e-02  8.458230e-01  5.314658e-01
   outer loop
     vertex  1.450023e+02  9.702907e+01 -1.822479e+01
     vertex  1.307000e+02  9.702907e+01 -1.698349e+01
     vertex  1.307000e+02  9.345494e+01 -1.129531e+01
   endloop
 endfacet
 facet normal  4.612602e-02  8.458230e-01  5.314658e-01
   outer loop
     vertex  1.450023e+02  9.702907e+01 -1.822479e+01
     vertex  1.307000e+02  9.345494e+01 -1.129531e+01
     vertex  1.459822e+02  9.345494e+01 -1.262166e+01
   endloop
 endfacet
 facet normal  2.176775e-01  5.306013e-01  8.191940e-01
   outer loop
     vertex  1.624198e+02  8.870469e+01 -1.209279e+01
     vertex  1.468006e+02  8.870469e+01 -7.942436e+00
     vertex  1.474164e+02  8.301651e+01 -4.421756e+00
   endloop
 endfacet
 facet normal  2.176775e-01  5.306013e-01  8.191940e-01
   outer loop
     vertex  1.624198e+02  8.870469e+01 -1.209279e+01
     vertex  1.474164e+02  8.301651e+01 -4.421756e+00
     vertex  1.636329e+02  8.301651e+01 -8.730835e+00
   endloop
 endfacet
 facet normal  3.102872e-01  5.318732e-01  7.879294e-01
   outer loop
     vertex  1.624198e+02  8.870469e+01 -1.209279e+01
     vertex  1.636329e+02  8.301651e+01 -8.730835e+00
     vertex  1.688428e+02  8.301651e+01 -1.078249e+01
   endloop
 endfacet
 facet normal  4.427004e-01  1.117804e-01  8.896750e-01
   outer loop
     vertex  1.799660e+02  7.667563e+01 -1.384320e+01
     vertex  1.697150e+02  7.667563e+01 -8.742349e+00
     vertex  1.803393e+02  7.000000e+01 -1.319025e+01
   endloop
 endfacet
 facet normal  3.102872e-01  5.318732e-01  7.879294e-01
   outer loop
     vertex  1.674378e+02  8.870469e+01 -1.406887e+01
     vertex  1.624198e+02  8.870469e+01 -1.209279e+01
     vertex  1.688428e+02  8.301651e+01 -1.078249e+01
   endloop
 endfacet
 facet normal  1.103270e-02  9.939958e-01  1.088607e-01
   outer loop
     vertex  1.439098e+02  9.924784e+01 -2.447086e+01
     vertex  1.447443e+02  1.000000e+02 -3.142335e+01
     vertex  1.307000e+02  1.000000e+02 -3.000000e+01
   endloop
 endfacet
 facet normal  2.865322e-02  9.434958e-01  3.301435e-01
   outer loop
     vertex  1.439098e+02  9.924784e+01 -2.447086e+01
     vertex  1.307000e+02  9.924784e+01 -2.332437e+01
     vertex  1.307000e+02  9.702907e+01 -1.698349e+01
   endloop
 endfacet
 facet normal  9.716960e-03  9.936653e-01  1.119592e-01
   outer loop
     vertex  1.439098e+02  9.924784e+01 -2.447086e+01
     vertex  1.307000e+02  1.000000e+02 -3.000000e+01
     vertex  1.307000e+02  9.924784e+01 -2.332437e+01
   endloop
 endfacet
 facet normal  2.865322e-02  9.434958e-01  3.301435e-01
   outer loop
     vertex  1.439098e+02  9.924784e+01 -2.447086e+01
     vertex  1.307000e+02  9.702907e+01 -1.698349e+01
     vertex  1.450023e+02  9.702907e+01 -1.822479e+01
   endloop
 endfacet
 facet normal  1.819323e-01  7.057790e-01  6.846727e-01
   outer loop
     vertex  1.608075e+02  9.345494e+01 -1.656105e+01
     vertex  1.468006e+02  8.870469e+01 -7.942436e+00
     vertex  1.624198e+02  8.870469e+01 -1.209279e+01
   endloop
 endfacet
 facet normal  1.369987e-01  8.458230e-01  5.155724e-01
   outer loop
     vertex  1.608075e+02  9.345494e+01 -1.656105e+01
     vertex  1.450023e+02  9.702907e+01 -1.822479e+01
     vertex  1.459822e+02  9.345494e+01 -1.262166e+01
   endloop
 endfacet
 facet normal  1.819323e-01  7.057790e-01  6.846727e-01
   outer loop
     vertex  1.608075e+02  9.345494e+01 -1.656105e+01
     vertex  1.459822e+02  9.345494e+01 -1.262166e+01
     vertex  1.468006e+02  8.870469e+01 -7.942436e+00
   endloop
 endfacet
 facet normal  4.205691e-01  3.297890e-01  8.451987e-01
   outer loop
     vertex  1.788646e+02  8.301651e+01 -1.576931e+01
     vertex  1.697150e+02  7.667563e+01 -8.742349e+00
     vertex  1.799660e+02  7.667563e+01 -1.384320e+01
   endloop
 endfacet
 facet normal  4.205691e-01  3.297890e-01  8.451987e-01
   outer loop
     vertex  1.788646e+02  8.301651e+01 -1.576931e+01
     vertex  1.688428e+02  8.301651e+01 -1.078249e+01
     vertex  1.697150e+02  7.667563e+01 -8.742349e+00
   endloop
 endfacet
 facet normal  5.686856e-01  5.648117e-02  8.206135e-01
   outer loop
     vertex  1.872310e+02  7.667563e+01 -1.842566e+01
     vertex  1.803393e+02  7.000000e+01 -1.319025e+01
     vertex  1.945529e+02  7.000000e+01 -2.304027e+01
   endloop
 endfacet
 facet normal  5.301457e-01  1.118609e-01  8.404955e-01
   outer loop
     vertex  1.872310e+02  7.667563e+01 -1.842566e+01
     vertex  1.799660e+02  7.667563e+01 -1.384320e+01
     vertex  1.803393e+02  7.000000e+01 -1.319025e+01
   endloop
 endfacet
 facet normal  2.591469e-01  7.069595e-01  6.580662e-01
   outer loop
     vertex  1.655704e+02  9.345494e+01 -1.843669e+01
     vertex  1.608075e+02  9.345494e+01 -1.656105e+01
     vertex  1.624198e+02  8.870469e+01 -1.209279e+01
   endloop
 endfacet
 facet normal  2.591469e-01  7.069595e-01  6.580662e-01
   outer loop
     vertex  1.655704e+02  9.345494e+01 -1.843669e+01
     vertex  1.624198e+02  8.870469e+01 -1.209279e+01
     vertex  1.674378e+02  8.870469e+01 -1.406887e+01
   endloop
 endfacet
 facet normal  8.510278e-02  9.434958e-01  3.202705e-01
   outer loop
     vertex  1.588769e+02  9.702907e+01 -2.191157e+01
     vertex  1.439098e+02  9.924784e+01 -2.447086e+01
     vertex  1.450023e+02  9.702907e+01 -1.822479e+01
   endloop
 endfacet
 facet normal  1.369987e-01  8.458230e-01  5.155724e-01
   outer loop
     vertex  1.588769e+02  9.702907e+01 -2.191157e+01
     vertex  1.450023e+02  9.702907e+01 -1.822479e+01
     vertex  1.608075e+02  9.345494e+01 -1.656105e+01
   endloop
 endfacet
 facet normal  3.773869e-01  5.313965e-01  7.584174e-01
   outer loop
     vertex  1.770904e+02  8.870469e+01 -1.887200e+01
     vertex  1.674378e+02  8.870469e+01 -1.406887e+01
     vertex  1.688428e+02  8.301651e+01 -1.078249e+01
   endloop
 endfacet
 facet normal  3.773869e-01  5.313965e-01  7.584174e-01
   outer loop
     vertex  1.770904e+02  8.870469e+01 -1.887200e+01
     vertex  1.688428e+02  8.301651e+01 -1.078249e+01
     vertex  1.788646e+02  8.301651e+01 -1.576931e+01
   endloop
 endfacet
 facet normal  4.518420e-01  5.316746e-01  7.163525e-01
   outer loop
     vertex  1.859672e+02  8.301651e+01 -2.024932e+01
     vertex  1.770904e+02  8.870469e+01 -1.887200e+01
     vertex  1.788646e+02  8.301651e+01 -1.576931e+01
   endloop
 endfacet
 facet normal  5.036075e-01  3.300034e-01  7.984217e-01
   outer loop
     vertex  1.859672e+02  8.301651e+01 -2.024932e+01
     vertex  1.788646e+02  8.301651e+01 -1.576931e+01
     vertex  1.799660e+02  7.667563e+01 -1.384320e+01
   endloop
 endfacet
 facet normal  5.036075e-01  3.300034e-01  7.984217e-01
   outer loop
     vertex  1.859672e+02  8.301651e+01 -2.024932e+01
     vertex  1.799660e+02  7.667563e+01 -1.384320e+01
     vertex  1.872310e+02  7.667563e+01 -1.842566e+01
   endloop
 endfacet
 facet normal  6.008338e-01  1.118609e-01  7.915086e-01
   outer loop
     vertex  1.940726e+02  7.667563e+01 -2.361913e+01
     vertex  1.872310e+02  7.667563e+01 -1.842566e+01
     vertex  1.945529e+02  7.000000e+01 -2.304027e+01
   endloop
 endfacet
 facet normal  1.950016e-01  8.466244e-01  4.951783e-01
   outer loop
     vertex  1.633344e+02  9.702907e+01 -2.366693e+01
     vertex  1.588769e+02  9.702907e+01 -2.191157e+01
     vertex  1.608075e+02  9.345494e+01 -1.656105e+01
   endloop
 endfacet
 facet normal  1.950016e-01  8.466244e-01  4.951783e-01
   outer loop
     vertex  1.633344e+02  9.702907e+01 -2.366693e+01
     vertex  1.608075e+02  9.345494e+01 -1.656105e+01
     vertex  1.655704e+02  9.345494e+01 -1.843669e+01
   endloop
 endfacet
 facet normal  3.205774e-02  9.942121e-01  1.025410e-01
   outer loop
     vertex  1.567247e+02  9.924784e+01 -2.787604e+01
     vertex  1.582175e+02  1.000000e+02 -3.563552e+01
     vertex  1.447443e+02  1.000000e+02 -3.142335e+01
   endloop
 endfacet
 facet normal  2.949785e-02  9.933814e-01  1.110104e-01
   outer loop
     vertex  1.567247e+02  9.924784e+01 -2.787604e+01
     vertex  1.447443e+02  1.000000e+02 -3.142335e+01
     vertex  1.439098e+02  9.924784e+01 -2.447086e+01
   endloop
 endfacet
 facet normal  8.510278e-02  9.434958e-01  3.202705e-01
   outer loop
     vertex  1.567247e+02  9.924784e+01 -2.787604e+01
     vertex  1.439098e+02  9.924784e+01 -2.447086e+01
     vertex  1.588769e+02  9.702907e+01 -2.191157e+01
   endloop
 endfacet
 facet normal  3.152730e-01  7.065174e-01  6.335899e-01
   outer loop
     vertex  1.747324e+02  9.345494e+01 -2.299568e+01
     vertex  1.655704e+02  9.345494e+01 -1.843669e+01
     vertex  1.674378e+02  8.870469e+01 -1.406887e+01
   endloop
 endfacet
 facet normal  3.152730e-01  7.065174e-01  6.335899e-01
   outer loop
     vertex  1.747324e+02  9.345494e+01 -2.299568e+01
     vertex  1.674378e+02  8.870469e+01 -1.406887e+01
     vertex  1.770904e+02  8.870469e+01 -1.887200e+01
   endloop
 endfacet
 facet normal  4.518420e-01  5.316746e-01  7.163525e-01
   outer loop
     vertex  1.839314e+02  8.870469e+01 -2.318699e+01
     vertex  1.770904e+02  8.870469e+01 -1.887200e+01
     vertex  1.859672e+02  8.301651e+01 -2.024932e+01
   endloop
 endfacet
 facet normal  5.707571e-01  3.300034e-01  7.518870e-01
   outer loop
     vertex  1.926559e+02  8.301651e+01 -2.532669e+01
     vertex  1.872310e+02  7.667563e+01 -1.842566e+01
     vertex  1.940726e+02  7.667563e+01 -2.361913e+01
   endloop
 endfacet
 facet normal  5.707571e-01  3.300034e-01  7.518870e-01
   outer loop
     vertex  1.926559e+02  8.301651e+01 -2.532669e+01
     vertex  1.859672e+02  8.301651e+01 -2.024932e+01
     vertex  1.872310e+02  7.667563e+01 -1.842566e+01
   endloop
 endfacet
 facet normal  1.210634e-01  9.438404e-01  3.074230e-01
   outer loop
     vertex  1.608417e+02  9.924784e+01 -2.949733e+01
     vertex  1.567247e+02  9.924784e+01 -2.787604e+01
     vertex  1.588769e+02  9.702907e+01 -2.191157e+01
   endloop
 endfacet
 facet normal  4.104210e-02  9.937070e-01  1.042205e-01
   outer loop
     vertex  1.608417e+02  9.924784e+01 -2.949733e+01
     vertex  1.582175e+02  1.000000e+02 -3.563552e+01
     vertex  1.567247e+02  9.924784e+01 -2.787604e+01
   endloop
 endfacet
 facet normal  1.210634e-01  9.438404e-01  3.074230e-01
   outer loop
     vertex  1.608417e+02  9.924784e+01 -2.949733e+01
     vertex  1.588769e+02  9.702907e+01 -2.191157e+01
     vertex  1.633344e+02  9.702907e+01 -2.366693e+01
   endloop
 endfacet
 facet normal  6.775861e-01  1.117804e-01  7.268990e-01
   outer loop
     vertex  2.024481e+02  7.667563e+01 -3.142637e+01
     vertex  1.940726e+02  7.667563e+01 -2.361913e+01
     vertex  1.945529e+02  7.000000e+01 -2.304027e+01
   endloop
 endfacet
 facet normal  7.013017e-01  6.263828e-02  7.101073e-01
   outer loop
     vertex  2.024481e+02  7.667563e+01 -3.142637e+01
     vertex  1.945529e+02  7.000000e+01 -2.304027e+01
     vertex  2.068570e+02  7.000000e+01 -3.519176e+01
   endloop
 endfacet
 facet normal  2.372994e-01  8.463244e-01  4.768899e-01
   outer loop
     vertex  1.719088e+02  9.702907e+01 -2.793357e+01
     vertex  1.633344e+02  9.702907e+01 -2.366693e+01
     vertex  1.655704e+02  9.345494e+01 -1.843669e+01
   endloop
 endfacet
 facet normal  1.473554e-01  9.437115e-01  2.961334e-01
   outer loop
     vertex  1.719088e+02  9.702907e+01 -2.793357e+01
     vertex  1.608417e+02  9.924784e+01 -2.949733e+01
     vertex  1.633344e+02  9.702907e+01 -2.366693e+01
   endloop
 endfacet
 facet normal  2.372994e-01  8.463244e-01  4.768899e-01
   outer loop
     vertex  1.719088e+02  9.702907e+01 -2.793357e+01
     vertex  1.655704e+02  9.345494e+01 -1.843669e+01
     vertex  1.747324e+02  9.345494e+01 -2.299568e+01
   endloop
 endfacet
 facet normal  3.774140e-01  7.067754e-01  5.983538e-01
   outer loop
     vertex  1.812257e+02  9.345494e+01 -2.709134e+01
     vertex  1.747324e+02  9.345494e+01 -2.299568e+01
     vertex  1.770904e+02  8.870469e+01 -1.887200e+01
   endloop
 endfacet
 facet normal  3.774140e-01  7.067754e-01  5.983538e-01
   outer loop
     vertex  1.812257e+02  9.345494e+01 -2.709134e+01
     vertex  1.770904e+02  8.870469e+01 -1.887200e+01
     vertex  1.839314e+02  8.870469e+01 -2.318699e+01
   endloop
 endfacet
 facet normal  4.277372e-01  7.067754e-01  5.634797e-01
   outer loop
     vertex  1.903737e+02  8.870469e+01 -2.807733e+01
     vertex  1.812257e+02  9.345494e+01 -2.709134e+01
     vertex  1.839314e+02  8.870469e+01 -2.318699e+01
   endloop
 endfacet
 facet normal  5.120894e-01  5.316746e-01  6.746010e-01
   outer loop
     vertex  1.903737e+02  8.870469e+01 -2.807733e+01
     vertex  1.859672e+02  8.301651e+01 -2.024932e+01
     vertex  1.926559e+02  8.301651e+01 -2.532669e+01
   endloop
 endfacet
 facet normal  5.120894e-01  5.316746e-01  6.746010e-01
   outer loop
     vertex  1.903737e+02  8.870469e+01 -2.807733e+01
     vertex  1.839314e+02  8.870469e+01 -2.318699e+01
     vertex  1.859672e+02  8.301651e+01 -2.024932e+01
   endloop
 endfacet
 facet normal  7.378884e-01  1.119184e-01  6.655787e-01
   outer loop
     vertex  2.062842e+02  7.667563e+01 -3.567923e+01
     vertex  2.024481e+02  7.667563e+01 -3.142637e+01
     vertex  2.068570e+02  7.000000e+01 -3.519176e+01
   endloop
 endfacet
 facet normal  6.437126e-01  3.297890e-01  6.905602e-01
   outer loop
     vertex  2.008441e+02  8.301651e+01 -3.295939e+01
     vertex  1.940726e+02  7.667563e+01 -2.361913e+01
     vertex  2.024481e+02  7.667563e+01 -3.142637e+01
   endloop
 endfacet
 facet normal  7.009158e-01  3.301565e-01  6.322292e-01
   outer loop
     vertex  2.008441e+02  8.301651e+01 -3.295939e+01
     vertex  2.024481e+02  7.667563e+01 -3.142637e+01
     vertex  2.062842e+02  7.667563e+01 -3.567923e+01
   endloop
 endfacet
 facet normal  6.437126e-01  3.297890e-01  6.905602e-01
   outer loop
     vertex  2.008441e+02  8.301651e+01 -3.295939e+01
     vertex  1.926559e+02  8.301651e+01 -2.532669e+01
     vertex  1.940726e+02  7.667563e+01 -2.361913e+01
   endloop
 endfacet
 facet normal  5.151198e-02  9.943159e-01  9.317929e-02
   outer loop
     vertex  1.687613e+02  9.924784e+01 -3.343808e+01
     vertex  1.705716e+02  1.000000e+02 -4.246521e+01
     vertex  1.582175e+02  1.000000e+02 -3.563552e+01
   endloop
 endfacet
 facet normal  4.996146e-02  9.936914e-01  1.004053e-01
   outer loop
     vertex  1.687613e+02  9.924784e+01 -3.343808e+01
     vertex  1.582175e+02  1.000000e+02 -3.563552e+01
     vertex  1.608417e+02  9.924784e+01 -2.949733e+01
   endloop
 endfacet
 facet normal  1.473554e-01  9.437115e-01  2.961334e-01
   outer loop
     vertex  1.687613e+02  9.924784e+01 -3.343808e+01
     vertex  1.608417e+02  9.924784e+01 -2.949733e+01
     vertex  1.719088e+02  9.702907e+01 -2.793357e+01
   endloop
 endfacet
 facet normal  2.840266e-01  8.464995e-01  4.502971e-01
   outer loop
     vertex  1.779857e+02  9.702907e+01 -3.176660e+01
     vertex  1.719088e+02  9.702907e+01 -2.793357e+01
     vertex  1.747324e+02  9.345494e+01 -2.299568e+01
   endloop
 endfacet
 facet normal  2.840266e-01  8.464995e-01  4.502971e-01
   outer loop
     vertex  1.779857e+02  9.702907e+01 -3.176660e+01
     vertex  1.747324e+02  9.345494e+01 -2.299568e+01
     vertex  1.812257e+02  9.345494e+01 -2.709134e+01
   endloop
 endfacet
 facet normal  1.763491e-01  9.437868e-01  2.795846e-01
   outer loop
     vertex  1.779857e+02  9.702907e+01 -3.176660e+01
     vertex  1.687613e+02  9.924784e+01 -3.343808e+01
     vertex  1.719088e+02  9.702907e+01 -2.793357e+01
   endloop
 endfacet
 facet normal  3.218979e-01  8.464995e-01  4.240523e-01
   outer loop
     vertex  1.873405e+02  9.345494e+01 -3.173311e+01
     vertex  1.779857e+02  9.702907e+01 -3.176660e+01
     vertex  1.812257e+02  9.345494e+01 -2.709134e+01
   endloop
 endfacet
 facet normal  4.277372e-01  7.067754e-01  5.634797e-01
   outer loop
     vertex  1.873405e+02  9.345494e+01 -3.173311e+01
     vertex  1.812257e+02  9.345494e+01 -2.709134e+01
     vertex  1.903737e+02  8.870469e+01 -2.807733e+01
   endloop
 endfacet
 facet normal  7.009158e-01  3.301565e-01  6.322292e-01
   outer loop
     vertex  2.045944e+02  8.301651e+01 -3.711717e+01
     vertex  2.008441e+02  8.301651e+01 -3.295939e+01
     vertex  2.062842e+02  7.667563e+01 -3.567923e+01
   endloop
 endfacet
 facet normal  5.776189e-01  5.313965e-01  6.196565e-01
   outer loop
     vertex  1.982603e+02  8.870469e+01 -3.542887e+01
     vertex  1.903737e+02  8.870469e+01 -2.807733e+01
     vertex  1.926559e+02  8.301651e+01 -2.532669e+01
   endloop
 endfacet
 facet normal  5.776189e-01  5.313965e-01  6.196565e-01
   outer loop
     vertex  1.982603e+02  8.870469e+01 -3.542887e+01
     vertex  1.926559e+02  8.301651e+01 -2.532669e+01
     vertex  2.008441e+02  8.301651e+01 -3.295939e+01
   endloop
 endfacet
 facet normal  1.763491e-01  9.437868e-01  2.795846e-01
   outer loop
     vertex  1.743740e+02  9.924784e+01 -3.697834e+01
     vertex  1.687613e+02  9.924784e+01 -3.343808e+01
     vertex  1.779857e+02  9.702907e+01 -3.176660e+01
   endloop
 endfacet
 facet normal  5.978768e-02  9.937005e-01  9.478766e-02
   outer loop
     vertex  1.743740e+02  9.924784e+01 -3.697834e+01
     vertex  1.705716e+02  1.000000e+02 -4.246521e+01
     vertex  1.687613e+02  9.924784e+01 -3.343808e+01
   endloop
 endfacet
 facet normal  3.218979e-01  8.464995e-01  4.240523e-01
   outer loop
     vertex  1.837085e+02  9.702907e+01 -3.611072e+01
     vertex  1.779857e+02  9.702907e+01 -3.176660e+01
     vertex  1.873405e+02  9.345494e+01 -3.173311e+01
   endloop
 endfacet
 facet normal  8.120735e-01  8.105889e-02  5.778980e-01
   outer loop
     vertex  2.147473e+02  7.667563e+01 -4.721577e+01
     vertex  2.068570e+02  7.000000e+01 -3.519176e+01
     vertex  2.168836e+02  7.000000e+01 -4.928134e+01
   endloop
 endfacet
 facet normal  8.012604e-01  1.116769e-01  5.878011e-01
   outer loop
     vertex  2.147473e+02  7.667563e+01 -4.721577e+01
     vertex  2.062842e+02  7.667563e+01 -3.567923e+01
     vertex  2.068570e+02  7.000000e+01 -3.519176e+01
   endloop
 endfacet
 facet normal  8.863068e-01  1.478327e-01  4.388688e-01
   outer loop
     vertex  2.147473e+02  7.667563e+01 -4.721577e+01
     vertex  2.168836e+02  7.000000e+01 -4.928134e+01
     vertex  2.236286e+02  7.667563e+01 -6.515176e+01
   endloop
 endfacet
 facet normal  6.288122e-01  5.318732e-01  5.671914e-01
   outer loop
     vertex  2.018725e+02  8.870469e+01 -3.943350e+01
     vertex  2.008441e+02  8.301651e+01 -3.295939e+01
     vertex  2.045944e+02  8.301651e+01 -3.711717e+01
   endloop
 endfacet
 facet normal  6.288122e-01  5.318732e-01  5.671914e-01
   outer loop
     vertex  2.018725e+02  8.870469e+01 -3.943350e+01
     vertex  1.982603e+02  8.870469e+01 -3.542887e+01
     vertex  2.008441e+02  8.301651e+01 -3.295939e+01
   endloop
 endfacet
 facet normal  4.825490e-01  7.065174e-01  5.176676e-01
   outer loop
     vertex  1.948262e+02  9.345494e+01 -3.871098e+01
     vertex  1.903737e+02  8.870469e+01 -2.807733e+01
     vertex  1.982603e+02  8.870469e+01 -3.542887e+01
   endloop
 endfacet
 facet normal  4.825490e-01  7.065174e-01  5.176676e-01
   outer loop
     vertex  1.948262e+02  9.345494e+01 -3.871098e+01
     vertex  1.873405e+02  9.345494e+01 -3.173311e+01
     vertex  1.903737e+02  8.870469e+01 -2.807733e+01
   endloop
 endfacet
 facet normal  5.251740e-01  7.069595e-01  4.737093e-01
   outer loop
     vertex  1.948262e+02  9.345494e+01 -3.871098e+01
     vertex  1.982603e+02  8.870469e+01 -3.542887e+01
     vertex  2.018725e+02  8.870469e+01 -3.943350e+01
   endloop
 endfacet
 facet normal  6.915943e-02  9.943159e-01  8.094961e-02
   outer loop
     vertex  1.796596e+02  9.924784e+01 -4.099064e+01
     vertex  1.813043e+02  1.000000e+02 -5.163467e+01
     vertex  1.705716e+02  1.000000e+02 -4.246521e+01
   endloop
 endfacet
 facet normal  6.775960e-02  9.937005e-01  8.926312e-02
   outer loop
     vertex  1.796596e+02  9.924784e+01 -4.099064e+01
     vertex  1.705716e+02  1.000000e+02 -4.246521e+01
     vertex  1.743740e+02  9.924784e+01 -3.697834e+01
   endloop
 endfacet
 facet normal  1.998629e-01  9.437868e-01  2.632895e-01
   outer loop
     vertex  1.796596e+02  9.924784e+01 -4.099064e+01
     vertex  1.743740e+02  9.924784e+01 -3.697834e+01
     vertex  1.779857e+02  9.702907e+01 -3.176660e+01
   endloop
 endfacet
 facet normal  1.998629e-01  9.437868e-01  2.632895e-01
   outer loop
     vertex  1.796596e+02  9.924784e+01 -4.099064e+01
     vertex  1.779857e+02  9.702907e+01 -3.176660e+01
     vertex  1.837085e+02  9.702907e+01 -3.611072e+01
   endloop
 endfacet
 facet normal  8.463336e-01  3.287782e-01  4.190755e-01
   outer loop
     vertex  2.128684e+02  8.301651e+01 -4.839581e+01
     vertex  2.236286e+02  7.667563e+01 -6.515176e+01
     vertex  2.215511e+02  8.301651e+01 -6.593082e+01
   endloop
 endfacet
 facet normal  7.598889e-01  5.300839e-01  3.762710e-01
   outer loop
     vertex  2.128684e+02  8.301651e+01 -4.839581e+01
     vertex  2.215511e+02  8.301651e+01 -6.593082e+01
     vertex  2.182045e+02  8.870469e+01 -6.718578e+01
   endloop
 endfacet
 facet normal  8.463336e-01  3.287782e-01  4.190755e-01
   outer loop
     vertex  2.128684e+02  8.301651e+01 -4.839581e+01
     vertex  2.147473e+02  7.667563e+01 -4.721577e+01
     vertex  2.236286e+02  7.667563e+01 -6.515176e+01
   endloop
 endfacet
 facet normal  7.612728e-01  3.295133e-01  5.584664e-01
   outer loop
     vertex  2.128684e+02  8.301651e+01 -4.839581e+01
     vertex  2.062842e+02  7.667563e+01 -3.567923e+01
     vertex  2.147473e+02  7.667563e+01 -4.721577e+01
   endloop
 endfacet
 facet normal  7.612728e-01  3.295133e-01  5.584664e-01
   outer loop
     vertex  2.128684e+02  8.301651e+01 -4.839581e+01
     vertex  2.045944e+02  8.301651e+01 -3.711717e+01
     vertex  2.062842e+02  7.667563e+01 -3.567923e+01
   endloop
 endfacet
 facet normal  5.251740e-01  7.069595e-01  4.737093e-01
   outer loop
     vertex  1.982548e+02  9.345494e+01 -4.251205e+01
     vertex  1.948262e+02  9.345494e+01 -3.871098e+01
     vertex  2.018725e+02  8.870469e+01 -3.943350e+01
   endloop
 endfacet
 facet normal  3.632046e-01  8.463244e-01  3.896376e-01
   outer loop
     vertex  1.907141e+02  9.702907e+01 -4.264113e+01
     vertex  1.837085e+02  9.702907e+01 -3.611072e+01
     vertex  1.873405e+02  9.345494e+01 -3.173311e+01
   endloop
 endfacet
 facet normal  3.632046e-01  8.463244e-01  3.896376e-01
   outer loop
     vertex  1.907141e+02  9.702907e+01 -4.264113e+01
     vertex  1.873405e+02  9.345494e+01 -3.173311e+01
     vertex  1.948262e+02  9.345494e+01 -3.871098e+01
   endloop
 endfacet
 facet normal  2.255384e-01  9.437115e-01  2.419525e-01
   outer loop
     vertex  1.907141e+02  9.702907e+01 -4.264113e+01
     vertex  1.796596e+02  9.924784e+01 -4.099064e+01
     vertex  1.837085e+02  9.702907e+01 -3.611072e+01
   endloop
 endfacet
 facet normal  6.352929e-01  7.052980e-01  3.145753e-01
   outer loop
     vertex  2.098416e+02  8.870469e+01 -5.029668e+01
     vertex  2.182045e+02  8.870469e+01 -6.718578e+01
     vertex  2.137567e+02  9.345494e+01 -6.885370e+01
   endloop
 endfacet
 facet normal  7.598889e-01  5.300839e-01  3.762710e-01
   outer loop
     vertex  2.098416e+02  8.870469e+01 -5.029668e+01
     vertex  2.128684e+02  8.301651e+01 -4.839581e+01
     vertex  2.182045e+02  8.870469e+01 -6.718578e+01
   endloop
 endfacet
 facet normal  6.832198e-01  5.310388e-01  5.012070e-01
   outer loop
     vertex  2.098416e+02  8.870469e+01 -5.029668e+01
     vertex  2.018725e+02  8.870469e+01 -3.943350e+01
     vertex  2.045944e+02  8.301651e+01 -3.711717e+01
   endloop
 endfacet
 facet normal  6.832198e-01  5.310388e-01  5.012070e-01
   outer loop
     vertex  2.098416e+02  8.870469e+01 -5.029668e+01
     vertex  2.045944e+02  8.301651e+01 -3.711717e+01
     vertex  2.128684e+02  8.301651e+01 -4.839581e+01
   endloop
 endfacet
 facet normal  5.708852e-01  7.061853e-01  4.187988e-01
   outer loop
     vertex  2.098416e+02  8.870469e+01 -5.029668e+01
     vertex  1.982548e+02  9.345494e+01 -4.251205e+01
     vertex  2.018725e+02  8.870469e+01 -3.943350e+01
   endloop
 endfacet
 facet normal  3.951803e-01  8.466244e-01  3.564544e-01
   outer loop
     vertex  1.939229e+02  9.702907e+01 -4.619846e+01
     vertex  1.948262e+02  9.345494e+01 -3.871098e+01
     vertex  1.982548e+02  9.345494e+01 -4.251205e+01
   endloop
 endfacet
 facet normal  3.951803e-01  8.466244e-01  3.564544e-01
   outer loop
     vertex  1.939229e+02  9.702907e+01 -4.619846e+01
     vertex  1.907141e+02  9.702907e+01 -4.264113e+01
     vertex  1.948262e+02  9.345494e+01 -3.871098e+01
   endloop
 endfacet
 facet normal  7.646976e-02  9.936914e-01  8.203502e-02
   outer loop
     vertex  1.861302e+02  9.924784e+01 -4.702226e+01
     vertex  1.813043e+02  1.000000e+02 -5.163467e+01
     vertex  1.796596e+02  9.924784e+01 -4.099064e+01
   endloop
 endfacet
 facet normal  2.255384e-01  9.437115e-01  2.419525e-01
   outer loop
     vertex  1.861302e+02  9.924784e+01 -4.702226e+01
     vertex  1.796596e+02  9.924784e+01 -4.099064e+01
     vertex  1.907141e+02  9.702907e+01 -4.264113e+01
   endloop
 endfacet
 facet normal  6.352929e-01  7.052980e-01  3.145753e-01
   outer loop
     vertex  2.058189e+02  9.345494e+01 -5.282306e+01
     vertex  2.098416e+02  8.870469e+01 -5.029668e+01
     vertex  2.137567e+02  9.345494e+01 -6.885370e+01
   endloop
 endfacet
 facet normal  5.708852e-01  7.061853e-01  4.187988e-01
   outer loop
     vertex  2.058189e+02  9.345494e+01 -5.282306e+01
     vertex  1.982548e+02  9.345494e+01 -4.251205e+01
     vertex  2.098416e+02  8.870469e+01 -5.029668e+01
   endloop
 endfacet
 facet normal  8.475589e-02  9.942121e-01  6.602114e-02
   outer loop
     vertex  1.890938e+02  9.924784e+01 -5.030788e+01
     vertex  1.899790e+02  1.000000e+02 -6.277102e+01
     vertex  1.813043e+02  1.000000e+02 -5.163467e+01
   endloop
 endfacet
 facet normal  8.317382e-02  9.937070e-01  7.502316e-02
   outer loop
     vertex  1.890938e+02  9.924784e+01 -5.030788e+01
     vertex  1.813043e+02  1.000000e+02 -5.163467e+01
     vertex  1.861302e+02  9.924784e+01 -4.702226e+01
   endloop
 endfacet
 facet normal  2.453409e-01  9.438404e-01  2.212986e-01
   outer loop
     vertex  1.890938e+02  9.924784e+01 -5.030788e+01
     vertex  1.907141e+02  9.702907e+01 -4.264113e+01
     vertex  1.939229e+02  9.702907e+01 -4.619846e+01
   endloop
 endfacet
 facet normal  2.453409e-01  9.438404e-01  2.212986e-01
   outer loop
     vertex  1.890938e+02  9.924784e+01 -5.030788e+01
     vertex  1.861302e+02  9.924784e+01 -4.702226e+01
     vertex  1.907141e+02  9.702907e+01 -4.264113e+01
   endloop
 endfacet
 facet normal  4.297809e-01  8.460990e-01  3.152854e-01
   outer loop
     vertex  2.010019e+02  9.702907e+01 -5.584828e+01
     vertex  1.982548e+02  9.345494e+01 -4.251205e+01
     vertex  2.058189e+02  9.345494e+01 -5.282306e+01
   endloop
 endfacet
 facet normal  4.785295e-01  8.454960e-01  2.369515e-01
   outer loop
     vertex  2.010019e+02  9.702907e+01 -5.584828e+01
     vertex  2.137567e+02  9.345494e+01 -6.885370e+01
     vertex  2.084307e+02  9.702907e+01 -7.085096e+01
   endloop
 endfacet
 facet normal  4.297809e-01  8.460990e-01  3.152854e-01
   outer loop
     vertex  2.010019e+02  9.702907e+01 -5.584828e+01
     vertex  1.939229e+02  9.702907e+01 -4.619846e+01
     vertex  1.982548e+02  9.345494e+01 -4.251205e+01
   endloop
 endfacet
 facet normal  4.785295e-01  8.454960e-01  2.369515e-01
   outer loop
     vertex  2.010019e+02  9.702907e+01 -5.584828e+01
     vertex  2.058189e+02  9.345494e+01 -5.282306e+01
     vertex  2.137567e+02  9.345494e+01 -6.885370e+01
   endloop
 endfacet
 facet normal  2.669239e-01  9.436146e-01  1.958142e-01
   outer loop
     vertex  1.956322e+02  9.924784e+01 -5.922063e+01
     vertex  1.890938e+02  9.924784e+01 -5.030788e+01
     vertex  1.939229e+02  9.702907e+01 -4.619846e+01
   endloop
 endfacet
 facet normal  2.973303e-01  9.433550e-01  1.472278e-01
   outer loop
     vertex  1.956322e+02  9.924784e+01 -5.922063e+01
     vertex  2.084307e+02  9.702907e+01 -7.085096e+01
     vertex  2.024936e+02  9.924784e+01 -7.307739e+01
   endloop
 endfacet
 facet normal  2.973303e-01  9.433550e-01  1.472278e-01
   outer loop
     vertex  1.956322e+02  9.924784e+01 -5.922063e+01
     vertex  2.010019e+02  9.702907e+01 -5.584828e+01
     vertex  2.084307e+02  9.702907e+01 -7.085096e+01
   endloop
 endfacet
 facet normal  1.008448e-01  9.936482e-01  4.993491e-02
   outer loop
     vertex  1.956322e+02  9.924784e+01 -5.922063e+01
     vertex  2.024936e+02  9.924784e+01 -7.307739e+01
     vertex  1.962430e+02  1.000000e+02 -7.542136e+01
   endloop
 endfacet
 facet normal  1.008448e-01  9.936482e-01  4.993491e-02
   outer loop
     vertex  1.956322e+02  9.924784e+01 -5.922063e+01
     vertex  1.962430e+02  1.000000e+02 -7.542136e+01
     vertex  1.899790e+02  1.000000e+02 -6.277102e+01
   endloop
 endfacet
 facet normal  2.669239e-01  9.436146e-01  1.958142e-01
   outer loop
     vertex  1.956322e+02  9.924784e+01 -5.922063e+01
     vertex  1.939229e+02  9.702907e+01 -4.619846e+01
     vertex  2.010019e+02  9.702907e+01 -5.584828e+01
   endloop
 endfacet
 facet normal  9.050991e-02  9.936797e-01  6.639767e-02
   outer loop
     vertex  1.956322e+02  9.924784e+01 -5.922063e+01
     vertex  1.899790e+02  1.000000e+02 -6.277102e+01
     vertex  1.890938e+02  9.924784e+01 -5.030788e+01
   endloop
 endfacet
endsolid
