solid 
 facet normal -8.592551e-02  1.115504e-01  9.900370e-01
   outer loop
     vertex -1.307000e+02  7.667563e+01 -7.521626e-01
     vertex -1.479282e+02  7.000000e+01 -1.495245e+00
     vertex -1.307000e+02  7.000000e+01  0.000000e+00
   endloop
 endfacet
 facet normal -8.968301e-01  1.115504e-01  4.280798e-01
   outer loop
     vertex -2.162353e+02  7.667563e+01 -4.966283e+01
     vertex -2.236286e+02  7.667563e+01 -6.515176e+01
     vertex -2.243329e+02  7.000000e+01 -6.488766e+01
   endloop
 endfacet
 facet normal -8.968301e-01  1.115504e-01  4.280798e-01
   outer loop
     vertex -2.162353e+02  7.667563e+01 -4.966283e+01
     vertex -2.243329e+02  7.000000e+01 -6.488766e+01
     vertex -2.168836e+02  7.000000e+01 -4.928134e+01
   endloop
 endfacet
 facet normal -8.521669e-01  3.291764e-01  4.067609e-01
   outer loop
     vertex -2.143231e+02  8.301651e+01 -5.078816e+01
     vertex -2.215511e+02  8.301651e+01 -6.593082e+01
     vertex -2.236286e+02  7.667563e+01 -6.515176e+01
   endloop
 endfacet
 facet normal -8.521669e-01  3.291764e-01  4.067609e-01
   outer loop
     vertex -2.143231e+02  8.301651e+01 -5.078816e+01
     vertex -2.236286e+02  7.667563e+01 -6.515176e+01
     vertex -2.162353e+02  7.667563e+01 -4.966283e+01
   endloop
 endfacet
 facet normal -7.649467e-01  5.306013e-01  3.651285e-01
   outer loop
     vertex -2.112428e+02  8.870469e+01 -5.260091e+01
     vertex -2.182045e+02  8.870469e+01 -6.718578e+01
     vertex -2.215511e+02  8.301651e+01 -6.593082e+01
   endloop
 endfacet
 facet normal -7.649467e-01  5.306013e-01  3.651285e-01
   outer loop
     vertex -2.112428e+02  8.870469e+01 -5.260091e+01
     vertex -2.215511e+02  8.301651e+01 -6.593082e+01
     vertex -2.143231e+02  8.301651e+01 -5.078816e+01
   endloop
 endfacet
 facet normal -8.096696e-01  1.115504e-01  5.761872e-01
   outer loop
     vertex -2.062842e+02  7.667563e+01 -3.567923e+01
     vertex -2.168836e+02  7.000000e+01 -4.928134e+01
     vertex -2.068570e+02  7.000000e+01 -3.519176e+01
   endloop
 endfacet
 facet normal -8.096696e-01  1.115504e-01  5.761872e-01
   outer loop
     vertex -2.062842e+02  7.667563e+01 -3.567923e+01
     vertex -2.162353e+02  7.667563e+01 -4.966283e+01
     vertex -2.168836e+02  7.000000e+01 -4.928134e+01
   endloop
 endfacet
 facet normal -7.013017e-01  6.263828e-02  7.101073e-01
   outer loop
     vertex -2.024481e+02  7.667563e+01 -3.142637e+01
     vertex -2.068570e+02  7.000000e+01 -3.519176e+01
     vertex -1.945529e+02  7.000000e+01 -2.304027e+01
   endloop
 endfacet
 facet normal -7.378884e-01  1.119184e-01  6.655787e-01
   outer loop
     vertex -2.024481e+02  7.667563e+01 -3.142637e+01
     vertex -2.062842e+02  7.667563e+01 -3.567923e+01
     vertex -2.068570e+02  7.000000e+01 -3.519176e+01
   endloop
 endfacet
 facet normal -6.393335e-01  7.057790e-01  3.051701e-01
   outer loop
     vertex -2.071489e+02  9.345494e+01 -5.501017e+01
     vertex -2.137567e+02  9.345494e+01 -6.885370e+01
     vertex -2.182045e+02  8.870469e+01 -6.718578e+01
   endloop
 endfacet
 facet normal -6.393335e-01  7.057790e-01  3.051701e-01
   outer loop
     vertex -2.071489e+02  9.345494e+01 -5.501017e+01
     vertex -2.182045e+02  8.870469e+01 -6.718578e+01
     vertex -2.112428e+02  8.870469e+01 -5.260091e+01
   endloop
 endfacet
 facet normal -7.693471e-01  3.291764e-01  5.474924e-01
   outer loop
     vertex -2.045944e+02  8.301651e+01 -3.711717e+01
     vertex -2.162353e+02  7.667563e+01 -4.966283e+01
     vertex -2.062842e+02  7.667563e+01 -3.567923e+01
   endloop
 endfacet
 facet normal -7.693471e-01  3.291764e-01  5.474924e-01
   outer loop
     vertex -2.045944e+02  8.301651e+01 -3.711717e+01
     vertex -2.143231e+02  8.301651e+01 -5.078816e+01
     vertex -2.162353e+02  7.667563e+01 -4.966283e+01
   endloop
 endfacet
 facet normal -7.009158e-01  3.301565e-01  6.322292e-01
   outer loop
     vertex -2.008441e+02  8.301651e+01 -3.295939e+01
     vertex -2.062842e+02  7.667563e+01 -3.567923e+01
     vertex -2.024481e+02  7.667563e+01 -3.142637e+01
   endloop
 endfacet
 facet normal -7.009158e-01  3.301565e-01  6.322292e-01
   outer loop
     vertex -2.008441e+02  8.301651e+01 -3.295939e+01
     vertex -2.045944e+02  8.301651e+01 -3.711717e+01
     vertex -2.062842e+02  7.667563e+01 -3.567923e+01
   endloop
 endfacet
 facet normal -4.814310e-01  8.458230e-01  2.297992e-01
   outer loop
     vertex -2.022466e+02  9.702907e+01 -5.789514e+01
     vertex -2.084307e+02  9.702907e+01 -7.085096e+01
     vertex -2.137567e+02  9.345494e+01 -6.885370e+01
   endloop
 endfacet
 facet normal -4.814310e-01  8.458230e-01  2.297992e-01
   outer loop
     vertex -2.022466e+02  9.702907e+01 -5.789514e+01
     vertex -2.137567e+02  9.345494e+01 -6.885370e+01
     vertex -2.071489e+02  9.345494e+01 -5.501017e+01
   endloop
 endfacet
 facet normal -6.906036e-01  5.306013e-01  4.914560e-01
   outer loop
     vertex -2.018725e+02  8.870469e+01 -3.943350e+01
     vertex -2.112428e+02  8.870469e+01 -5.260091e+01
     vertex -2.143231e+02  8.301651e+01 -5.078816e+01
   endloop
 endfacet
 facet normal -6.906036e-01  5.306013e-01  4.914560e-01
   outer loop
     vertex -2.018725e+02  8.870469e+01 -3.943350e+01
     vertex -2.143231e+02  8.301651e+01 -5.078816e+01
     vertex -2.045944e+02  8.301651e+01 -3.711717e+01
   endloop
 endfacet
 facet normal -6.775861e-01  1.117804e-01  7.268990e-01
   outer loop
     vertex -1.940726e+02  7.667563e+01 -2.361913e+01
     vertex -2.024481e+02  7.667563e+01 -3.142637e+01
     vertex -1.945529e+02  7.000000e+01 -2.304027e+01
   endloop
 endfacet
 facet normal -6.288122e-01  5.318732e-01  5.671914e-01
   outer loop
     vertex -1.982603e+02  8.870469e+01 -3.542887e+01
     vertex -2.045944e+02  8.301651e+01 -3.711717e+01
     vertex -2.008441e+02  8.301651e+01 -3.295939e+01
   endloop
 endfacet
 facet normal -6.288122e-01  5.318732e-01  5.671914e-01
   outer loop
     vertex -1.982603e+02  8.870469e+01 -3.542887e+01
     vertex -2.018725e+02  8.870469e+01 -3.943350e+01
     vertex -2.045944e+02  8.301651e+01 -3.711717e+01
   endloop
 endfacet
 facet normal -1.014188e-01  9.936653e-01  4.840977e-02
   outer loop
     vertex -1.967818e+02  9.924784e+01 -6.111115e+01
     vertex -1.962430e+02  1.000000e+02 -7.542136e+01
     vertex -2.024936e+02  9.924784e+01 -7.307739e+01
   endloop
 endfacet
 facet normal -2.990621e-01  9.434958e-01  1.427499e-01
   outer loop
     vertex -1.967818e+02  9.924784e+01 -6.111115e+01
     vertex -2.024936e+02  9.924784e+01 -7.307739e+01
     vertex -2.084307e+02  9.702907e+01 -7.085096e+01
   endloop
 endfacet
 facet normal -9.805557e-02  9.939958e-01  4.855377e-02
   outer loop
     vertex -1.967818e+02  9.924784e+01 -6.111115e+01
     vertex -1.899790e+02  1.000000e+02 -6.277102e+01
     vertex -1.962430e+02  1.000000e+02 -7.542136e+01
   endloop
 endfacet
 facet normal -2.990621e-01  9.434958e-01  1.427499e-01
   outer loop
     vertex -1.967818e+02  9.924784e+01 -6.111115e+01
     vertex -2.084307e+02  9.702907e+01 -7.085096e+01
     vertex -2.022466e+02  9.702907e+01 -5.789514e+01
   endloop
 endfacet
 facet normal -5.771983e-01  7.057790e-01  4.107531e-01
   outer loop
     vertex -1.982548e+02  9.345494e+01 -4.251205e+01
     vertex -2.112428e+02  8.870469e+01 -5.260091e+01
     vertex -2.018725e+02  8.870469e+01 -3.943350e+01
   endloop
 endfacet
 facet normal -5.771983e-01  7.057790e-01  4.107531e-01
   outer loop
     vertex -1.982548e+02  9.345494e+01 -4.251205e+01
     vertex -2.071489e+02  9.345494e+01 -5.501017e+01
     vertex -2.112428e+02  8.870469e+01 -5.260091e+01
   endloop
 endfacet
 facet normal -6.437126e-01  3.297890e-01  6.905602e-01
   outer loop
     vertex -1.926559e+02  8.301651e+01 -2.532669e+01
     vertex -2.024481e+02  7.667563e+01 -3.142637e+01
     vertex -1.940726e+02  7.667563e+01 -2.361913e+01
   endloop
 endfacet
 facet normal -6.437126e-01  3.297890e-01  6.905602e-01
   outer loop
     vertex -1.926559e+02  8.301651e+01 -2.532669e+01
     vertex -2.008441e+02  8.301651e+01 -3.295939e+01
     vertex -2.024481e+02  7.667563e+01 -3.142637e+01
   endloop
 endfacet
 facet normal -5.686856e-01  5.648117e-02  8.206135e-01
   outer loop
     vertex -1.872310e+02  7.667563e+01 -1.842566e+01
     vertex -1.945529e+02  7.000000e+01 -2.304027e+01
     vertex -1.803393e+02  7.000000e+01 -1.319025e+01
   endloop
 endfacet
 facet normal -6.008338e-01  1.118609e-01  7.915086e-01
   outer loop
     vertex -1.872310e+02  7.667563e+01 -1.842566e+01
     vertex -1.940726e+02  7.667563e+01 -2.361913e+01
     vertex -1.945529e+02  7.000000e+01 -2.304027e+01
   endloop
 endfacet
 facet normal -5.251740e-01  7.069595e-01  4.737093e-01
   outer loop
     vertex -1.948262e+02  9.345494e+01 -3.871098e+01
     vertex -1.982548e+02  9.345494e+01 -4.251205e+01
     vertex -2.018725e+02  8.870469e+01 -3.943350e+01
   endloop
 endfacet
 facet normal -5.251740e-01  7.069595e-01  4.737093e-01
   outer loop
     vertex -1.948262e+02  9.345494e+01 -3.871098e+01
     vertex -2.018725e+02  8.870469e+01 -3.943350e+01
     vertex -1.982603e+02  8.870469e+01 -3.542887e+01
   endloop
 endfacet
 facet normal -4.346420e-01  8.458230e-01  3.093054e-01
   outer loop
     vertex -1.939229e+02  9.702907e+01 -4.619846e+01
     vertex -2.022466e+02  9.702907e+01 -5.789514e+01
     vertex -2.071489e+02  9.345494e+01 -5.501017e+01
   endloop
 endfacet
 facet normal -3.951803e-01  8.466244e-01  3.564544e-01
   outer loop
     vertex -1.939229e+02  9.702907e+01 -4.619846e+01
     vertex -1.982548e+02  9.345494e+01 -4.251205e+01
     vertex -1.948262e+02  9.345494e+01 -3.871098e+01
   endloop
 endfacet
 facet normal -2.699971e-01  9.434958e-01  1.921387e-01
   outer loop
     vertex -1.939229e+02  9.702907e+01 -4.619846e+01
     vertex -1.967818e+02  9.924784e+01 -6.111115e+01
     vertex -2.022466e+02  9.702907e+01 -5.789514e+01
   endloop
 endfacet
 facet normal -4.346420e-01  8.458230e-01  3.093054e-01
   outer loop
     vertex -1.939229e+02  9.702907e+01 -4.619846e+01
     vertex -2.071489e+02  9.345494e+01 -5.501017e+01
     vertex -1.982548e+02  9.345494e+01 -4.251205e+01
   endloop
 endfacet
 facet normal -5.776189e-01  5.313965e-01  6.196565e-01
   outer loop
     vertex -1.903737e+02  8.870469e+01 -2.807733e+01
     vertex -1.982603e+02  8.870469e+01 -3.542887e+01
     vertex -2.008441e+02  8.301651e+01 -3.295939e+01
   endloop
 endfacet
 facet normal -5.776189e-01  5.313965e-01  6.196565e-01
   outer loop
     vertex -1.903737e+02  8.870469e+01 -2.807733e+01
     vertex -2.008441e+02  8.301651e+01 -3.295939e+01
     vertex -1.926559e+02  8.301651e+01 -2.532669e+01
   endloop
 endfacet
 facet normal -5.120894e-01  5.316746e-01  6.746010e-01
   outer loop
     vertex -1.859672e+02  8.301651e+01 -2.024932e+01
     vertex -1.903737e+02  8.870469e+01 -2.807733e+01
     vertex -1.926559e+02  8.301651e+01 -2.532669e+01
   endloop
 endfacet
 facet normal -5.707571e-01  3.300034e-01  7.518870e-01
   outer loop
     vertex -1.859672e+02  8.301651e+01 -2.024932e+01
     vertex -1.926559e+02  8.301651e+01 -2.532669e+01
     vertex -1.940726e+02  7.667563e+01 -2.361913e+01
   endloop
 endfacet
 facet normal -5.707571e-01  3.300034e-01  7.518870e-01
   outer loop
     vertex -1.859672e+02  8.301651e+01 -2.024932e+01
     vertex -1.940726e+02  7.667563e+01 -2.361913e+01
     vertex -1.872310e+02  7.667563e+01 -1.842566e+01
   endloop
 endfacet
 facet normal -5.036075e-01  3.300034e-01  7.984217e-01
   outer loop
     vertex -1.799660e+02  7.667563e+01 -1.384320e+01
     vertex -1.859672e+02  8.301651e+01 -2.024932e+01
     vertex -1.872310e+02  7.667563e+01 -1.842566e+01
   endloop
 endfacet
 facet normal -5.301457e-01  1.118609e-01  8.404955e-01
   outer loop
     vertex -1.799660e+02  7.667563e+01 -1.384320e+01
     vertex -1.872310e+02  7.667563e+01 -1.842566e+01
     vertex -1.803393e+02  7.000000e+01 -1.319025e+01
   endloop
 endfacet
 facet normal -3.951803e-01  8.466244e-01  3.564544e-01
   outer loop
     vertex -1.907141e+02  9.702907e+01 -4.264113e+01
     vertex -1.939229e+02  9.702907e+01 -4.619846e+01
     vertex -1.948262e+02  9.345494e+01 -3.871098e+01
   endloop
 endfacet
 facet normal -2.699971e-01  9.434958e-01  1.921387e-01
   outer loop
     vertex -1.890938e+02  9.924784e+01 -5.030788e+01
     vertex -1.967818e+02  9.924784e+01 -6.111115e+01
     vertex -1.939229e+02  9.702907e+01 -4.619846e+01
   endloop
 endfacet
 facet normal -8.475589e-02  9.942121e-01  6.602114e-02
   outer loop
     vertex -1.890938e+02  9.924784e+01 -5.030788e+01
     vertex -1.813043e+02  1.000000e+02 -5.163467e+01
     vertex -1.899790e+02  1.000000e+02 -6.277102e+01
   endloop
 endfacet
 facet normal -9.358489e-02  9.933814e-01  6.659805e-02
   outer loop
     vertex -1.890938e+02  9.924784e+01 -5.030788e+01
     vertex -1.899790e+02  1.000000e+02 -6.277102e+01
     vertex -1.967818e+02  9.924784e+01 -6.111115e+01
   endloop
 endfacet
 facet normal -4.825490e-01  7.065174e-01  5.176676e-01
   outer loop
     vertex -1.873405e+02  9.345494e+01 -3.173311e+01
     vertex -1.948262e+02  9.345494e+01 -3.871098e+01
     vertex -1.982603e+02  8.870469e+01 -3.542887e+01
   endloop
 endfacet
 facet normal -4.825490e-01  7.065174e-01  5.176676e-01
   outer loop
     vertex -1.873405e+02  9.345494e+01 -3.173311e+01
     vertex -1.982603e+02  8.870469e+01 -3.542887e+01
     vertex -1.903737e+02  8.870469e+01 -2.807733e+01
   endloop
 endfacet
 facet normal -5.120894e-01  5.316746e-01  6.746010e-01
   outer loop
     vertex -1.839314e+02  8.870469e+01 -2.318699e+01
     vertex -1.903737e+02  8.870469e+01 -2.807733e+01
     vertex -1.859672e+02  8.301651e+01 -2.024932e+01
   endloop
 endfacet
 facet normal -5.036075e-01  3.300034e-01  7.984217e-01
   outer loop
     vertex -1.788646e+02  8.301651e+01 -1.576931e+01
     vertex -1.859672e+02  8.301651e+01 -2.024932e+01
     vertex -1.799660e+02  7.667563e+01 -1.384320e+01
   endloop
 endfacet
 facet normal -2.453409e-01  9.438404e-01  2.212986e-01
   outer loop
     vertex -1.861302e+02  9.924784e+01 -4.702226e+01
     vertex -1.939229e+02  9.702907e+01 -4.619846e+01
     vertex -1.907141e+02  9.702907e+01 -4.264113e+01
   endloop
 endfacet
 facet normal -8.317382e-02  9.937070e-01  7.502316e-02
   outer loop
     vertex -1.861302e+02  9.924784e+01 -4.702226e+01
     vertex -1.813043e+02  1.000000e+02 -5.163467e+01
     vertex -1.890938e+02  9.924784e+01 -5.030788e+01
   endloop
 endfacet
 facet normal -2.453409e-01  9.438404e-01  2.212986e-01
   outer loop
     vertex -1.861302e+02  9.924784e+01 -4.702226e+01
     vertex -1.890938e+02  9.924784e+01 -5.030788e+01
     vertex -1.939229e+02  9.702907e+01 -4.619846e+01
   endloop
 endfacet
 facet normal -4.186507e-01  6.263828e-02  9.059846e-01
   outer loop
     vertex -1.697150e+02  7.667563e+01 -8.742349e+00
     vertex -1.803393e+02  7.000000e+01 -1.319025e+01
     vertex -1.646413e+02  7.000000e+01 -5.936264e+00
   endloop
 endfacet
 facet normal -4.427004e-01  1.117804e-01  8.896750e-01
   outer loop
     vertex -1.697150e+02  7.667563e+01 -8.742349e+00
     vertex -1.799660e+02  7.667563e+01 -1.384320e+01
     vertex -1.803393e+02  7.000000e+01 -1.319025e+01
   endloop
 endfacet
 facet normal -3.632046e-01  8.463244e-01  3.896376e-01
   outer loop
     vertex -1.837085e+02  9.702907e+01 -3.611072e+01
     vertex -1.948262e+02  9.345494e+01 -3.871098e+01
     vertex -1.873405e+02  9.345494e+01 -3.173311e+01
   endloop
 endfacet
 facet normal -3.632046e-01  8.463244e-01  3.896376e-01
   outer loop
     vertex -1.837085e+02  9.702907e+01 -3.611072e+01
     vertex -1.907141e+02  9.702907e+01 -4.264113e+01
     vertex -1.948262e+02  9.345494e+01 -3.871098e+01
   endloop
 endfacet
 facet normal -4.277372e-01  7.067754e-01  5.634797e-01
   outer loop
     vertex -1.812257e+02  9.345494e+01 -2.709134e+01
     vertex -1.873405e+02  9.345494e+01 -3.173311e+01
     vertex -1.903737e+02  8.870469e+01 -2.807733e+01
   endloop
 endfacet
 facet normal -4.277372e-01  7.067754e-01  5.634797e-01
   outer loop
     vertex -1.812257e+02  9.345494e+01 -2.709134e+01
     vertex -1.903737e+02  8.870469e+01 -2.807733e+01
     vertex -1.839314e+02  8.870469e+01 -2.318699e+01
   endloop
 endfacet
 facet normal -3.218979e-01  8.464995e-01  4.240523e-01
   outer loop
     vertex -1.812257e+02  9.345494e+01 -2.709134e+01
     vertex -1.837085e+02  9.702907e+01 -3.611072e+01
     vertex -1.873405e+02  9.345494e+01 -3.173311e+01
   endloop
 endfacet
 facet normal -4.518420e-01  5.316746e-01  7.163525e-01
   outer loop
     vertex -1.770904e+02  8.870469e+01 -1.887200e+01
     vertex -1.839314e+02  8.870469e+01 -2.318699e+01
     vertex -1.859672e+02  8.301651e+01 -2.024932e+01
   endloop
 endfacet
 facet normal -4.518420e-01  5.316746e-01  7.163525e-01
   outer loop
     vertex -1.770904e+02  8.870469e+01 -1.887200e+01
     vertex -1.859672e+02  8.301651e+01 -2.024932e+01
     vertex -1.788646e+02  8.301651e+01 -1.576931e+01
   endloop
 endfacet
 facet normal -3.641108e-01  1.119184e-01  9.246067e-01
   outer loop
     vertex -1.643860e+02  7.667563e+01 -6.643776e+00
     vertex -1.697150e+02  7.667563e+01 -8.742349e+00
     vertex -1.646413e+02  7.000000e+01 -5.936264e+00
   endloop
 endfacet
 facet normal -4.205691e-01  3.297890e-01  8.451987e-01
   outer loop
     vertex -1.688428e+02  8.301651e+01 -1.078249e+01
     vertex -1.788646e+02  8.301651e+01 -1.576931e+01
     vertex -1.799660e+02  7.667563e+01 -1.384320e+01
   endloop
 endfacet
 facet normal -4.205691e-01  3.297890e-01  8.451987e-01
   outer loop
     vertex -1.688428e+02  8.301651e+01 -1.078249e+01
     vertex -1.799660e+02  7.667563e+01 -1.384320e+01
     vertex -1.697150e+02  7.667563e+01 -8.742349e+00
   endloop
 endfacet
 facet normal -7.646976e-02  9.936914e-01  8.203502e-02
   outer loop
     vertex -1.796596e+02  9.924784e+01 -4.099064e+01
     vertex -1.813043e+02  1.000000e+02 -5.163467e+01
     vertex -1.861302e+02  9.924784e+01 -4.702226e+01
   endloop
 endfacet
 facet normal -2.255384e-01  9.437115e-01  2.419525e-01
   outer loop
     vertex -1.796596e+02  9.924784e+01 -4.099064e+01
     vertex -1.861302e+02  9.924784e+01 -4.702226e+01
     vertex -1.907141e+02  9.702907e+01 -4.264113e+01
   endloop
 endfacet
 facet normal -2.255384e-01  9.437115e-01  2.419525e-01
   outer loop
     vertex -1.796596e+02  9.924784e+01 -4.099064e+01
     vertex -1.907141e+02  9.702907e+01 -4.264113e+01
     vertex -1.837085e+02  9.702907e+01 -3.611072e+01
   endloop
 endfacet
 facet normal -6.915943e-02  9.943159e-01  8.094961e-02
   outer loop
     vertex -1.796596e+02  9.924784e+01 -4.099064e+01
     vertex -1.705716e+02  1.000000e+02 -4.246521e+01
     vertex -1.813043e+02  1.000000e+02 -5.163467e+01
   endloop
 endfacet
 facet normal -3.218979e-01  8.464995e-01  4.240523e-01
   outer loop
     vertex -1.779857e+02  9.702907e+01 -3.176660e+01
     vertex -1.837085e+02  9.702907e+01 -3.611072e+01
     vertex -1.812257e+02  9.345494e+01 -2.709134e+01
   endloop
 endfacet
 facet normal -1.998629e-01  9.437868e-01  2.632895e-01
   outer loop
     vertex -1.779857e+02  9.702907e+01 -3.176660e+01
     vertex -1.796596e+02  9.924784e+01 -4.099064e+01
     vertex -1.837085e+02  9.702907e+01 -3.611072e+01
   endloop
 endfacet
 facet normal -3.774140e-01  7.067754e-01  5.983538e-01
   outer loop
     vertex -1.747324e+02  9.345494e+01 -2.299568e+01
     vertex -1.812257e+02  9.345494e+01 -2.709134e+01
     vertex -1.839314e+02  8.870469e+01 -2.318699e+01
   endloop
 endfacet
 facet normal -3.774140e-01  7.067754e-01  5.983538e-01
   outer loop
     vertex -1.747324e+02  9.345494e+01 -2.299568e+01
     vertex -1.839314e+02  8.870469e+01 -2.318699e+01
     vertex -1.770904e+02  8.870469e+01 -1.887200e+01
   endloop
 endfacet
 facet normal -3.458667e-01  3.301565e-01  8.782784e-01
   outer loop
     vertex -1.636329e+02  8.301651e+01 -8.730835e+00
     vertex -1.697150e+02  7.667563e+01 -8.742349e+00
     vertex -1.643860e+02  7.667563e+01 -6.643776e+00
   endloop
 endfacet
 facet normal -3.458667e-01  3.301565e-01  8.782784e-01
   outer loop
     vertex -1.636329e+02  8.301651e+01 -8.730835e+00
     vertex -1.688428e+02  8.301651e+01 -1.078249e+01
     vertex -1.697150e+02  7.667563e+01 -8.742349e+00
   endloop
 endfacet
 facet normal -3.773869e-01  5.313965e-01  7.584174e-01
   outer loop
     vertex -1.674378e+02  8.870469e+01 -1.406887e+01
     vertex -1.770904e+02  8.870469e+01 -1.887200e+01
     vertex -1.788646e+02  8.301651e+01 -1.576931e+01
   endloop
 endfacet
 facet normal -3.773869e-01  5.313965e-01  7.584174e-01
   outer loop
     vertex -1.674378e+02  8.870469e+01 -1.406887e+01
     vertex -1.788646e+02  8.301651e+01 -1.576931e+01
     vertex -1.688428e+02  8.301651e+01 -1.078249e+01
   endloop
 endfacet
 facet normal -6.775960e-02  9.937005e-01  8.926312e-02
   outer loop
     vertex -1.743740e+02  9.924784e+01 -3.697834e+01
     vertex -1.705716e+02  1.000000e+02 -4.246521e+01
     vertex -1.796596e+02  9.924784e+01 -4.099064e+01
   endloop
 endfacet
 facet normal -1.998629e-01  9.437868e-01  2.632895e-01
   outer loop
     vertex -1.743740e+02  9.924784e+01 -3.697834e+01
     vertex -1.796596e+02  9.924784e+01 -4.099064e+01
     vertex -1.779857e+02  9.702907e+01 -3.176660e+01
   endloop
 endfacet
 facet normal -2.840266e-01  8.464995e-01  4.502971e-01
   outer loop
     vertex -1.719088e+02  9.702907e+01 -2.793357e+01
     vertex -1.812257e+02  9.345494e+01 -2.709134e+01
     vertex -1.747324e+02  9.345494e+01 -2.299568e+01
   endloop
 endfacet
 facet normal -2.840266e-01  8.464995e-01  4.502971e-01
   outer loop
     vertex -1.719088e+02  9.702907e+01 -2.793357e+01
     vertex -1.779857e+02  9.702907e+01 -3.176660e+01
     vertex -1.812257e+02  9.345494e+01 -2.709134e+01
   endloop
 endfacet
 facet normal -2.559647e-01  8.105889e-02  9.632817e-01
   outer loop
     vertex -1.506124e+02  7.667563e+01 -2.770226e+00
     vertex -1.646413e+02  7.000000e+01 -5.936264e+00
     vertex -1.479282e+02  7.000000e+01 -1.495245e+00
   endloop
 endfacet
 facet normal -2.690340e-01  1.116769e-01  9.566342e-01
   outer loop
     vertex -1.506124e+02  7.667563e+01 -2.770226e+00
     vertex -1.643860e+02  7.667563e+01 -6.643776e+00
     vertex -1.646413e+02  7.000000e+01 -5.936264e+00
   endloop
 endfacet
 facet normal -9.972261e-02  1.478327e-01  9.839720e-01
   outer loop
     vertex -1.506124e+02  7.667563e+01 -2.770226e+00
     vertex -1.479282e+02  7.000000e+01 -1.495245e+00
     vertex -1.307000e+02  7.667563e+01 -7.521626e-01
   endloop
 endfacet
 facet normal -3.102872e-01  5.318732e-01  7.879294e-01
   outer loop
     vertex -1.624198e+02  8.870469e+01 -1.209279e+01
     vertex -1.688428e+02  8.301651e+01 -1.078249e+01
     vertex -1.636329e+02  8.301651e+01 -8.730835e+00
   endloop
 endfacet
 facet normal -3.102872e-01  5.318732e-01  7.879294e-01
   outer loop
     vertex -1.624198e+02  8.870469e+01 -1.209279e+01
     vertex -1.674378e+02  8.870469e+01 -1.406887e+01
     vertex -1.688428e+02  8.301651e+01 -1.078249e+01
   endloop
 endfacet
 facet normal -3.152730e-01  7.065174e-01  6.335899e-01
   outer loop
     vertex -1.655704e+02  9.345494e+01 -1.843669e+01
     vertex -1.747324e+02  9.345494e+01 -2.299568e+01
     vertex -1.770904e+02  8.870469e+01 -1.887200e+01
   endloop
 endfacet
 facet normal -3.152730e-01  7.065174e-01  6.335899e-01
   outer loop
     vertex -1.655704e+02  9.345494e+01 -1.843669e+01
     vertex -1.770904e+02  8.870469e+01 -1.887200e+01
     vertex -1.674378e+02  8.870469e+01 -1.406887e+01
   endloop
 endfacet
 facet normal -2.591469e-01  7.069595e-01  6.580662e-01
   outer loop
     vertex -1.655704e+02  9.345494e+01 -1.843669e+01
     vertex -1.674378e+02  8.870469e+01 -1.406887e+01
     vertex -1.624198e+02  8.870469e+01 -1.209279e+01
   endloop
 endfacet
 facet normal -5.151198e-02  9.943159e-01  9.317929e-02
   outer loop
     vertex -1.687613e+02  9.924784e+01 -3.343808e+01
     vertex -1.582175e+02  1.000000e+02 -3.563552e+01
     vertex -1.705716e+02  1.000000e+02 -4.246521e+01
   endloop
 endfacet
 facet normal -5.978768e-02  9.937005e-01  9.478766e-02
   outer loop
     vertex -1.687613e+02  9.924784e+01 -3.343808e+01
     vertex -1.705716e+02  1.000000e+02 -4.246521e+01
     vertex -1.743740e+02  9.924784e+01 -3.697834e+01
   endloop
 endfacet
 facet normal -1.763491e-01  9.437868e-01  2.795846e-01
   outer loop
     vertex -1.687613e+02  9.924784e+01 -3.343808e+01
     vertex -1.779857e+02  9.702907e+01 -3.176660e+01
     vertex -1.719088e+02  9.702907e+01 -2.793357e+01
   endloop
 endfacet
 facet normal -1.763491e-01  9.437868e-01  2.795846e-01
   outer loop
     vertex -1.687613e+02  9.924784e+01 -3.343808e+01
     vertex -1.743740e+02  9.924784e+01 -3.697834e+01
     vertex -1.779857e+02  9.702907e+01 -3.176660e+01
   endloop
 endfacet
 facet normal -9.522504e-02  3.287782e-01  9.395941e-01
   outer loop
     vertex -1.501672e+02  8.301651e+01 -4.943882e+00
     vertex -1.307000e+02  7.667563e+01 -7.521626e-01
     vertex -1.307000e+02  8.301651e+01 -2.970934e+00
   endloop
 endfacet
 facet normal -8.549874e-02  5.300839e-01  8.436237e-01
   outer loop
     vertex -1.501672e+02  8.301651e+01 -4.943882e+00
     vertex -1.307000e+02  8.301651e+01 -2.970934e+00
     vertex -1.307000e+02  8.870469e+01 -6.545056e+00
   endloop
 endfacet
 facet normal -2.556076e-01  3.295133e-01  9.088926e-01
   outer loop
     vertex -1.501672e+02  8.301651e+01 -4.943882e+00
     vertex -1.643860e+02  7.667563e+01 -6.643776e+00
     vertex -1.506124e+02  7.667563e+01 -2.770226e+00
   endloop
 endfacet
 facet normal -9.522504e-02  3.287782e-01  9.395941e-01
   outer loop
     vertex -1.501672e+02  8.301651e+01 -4.943882e+00
     vertex -1.506124e+02  7.667563e+01 -2.770226e+00
     vertex -1.307000e+02  7.667563e+01 -7.521626e-01
   endloop
 endfacet
 facet normal -2.556076e-01  3.295133e-01  9.088926e-01
   outer loop
     vertex -1.501672e+02  8.301651e+01 -4.943882e+00
     vertex -1.636329e+02  8.301651e+01 -8.730835e+00
     vertex -1.643860e+02  7.667563e+01 -6.643776e+00
   endloop
 endfacet
 facet normal -2.591469e-01  7.069595e-01  6.580662e-01
   outer loop
     vertex -1.608075e+02  9.345494e+01 -1.656105e+01
     vertex -1.655704e+02  9.345494e+01 -1.843669e+01
     vertex -1.624198e+02  8.870469e+01 -1.209279e+01
   endloop
 endfacet
 facet normal -2.372994e-01  8.463244e-01  4.768899e-01
   outer loop
     vertex -1.633344e+02  9.702907e+01 -2.366693e+01
     vertex -1.719088e+02  9.702907e+01 -2.793357e+01
     vertex -1.747324e+02  9.345494e+01 -2.299568e+01
   endloop
 endfacet
 facet normal -2.372994e-01  8.463244e-01  4.768899e-01
   outer loop
     vertex -1.633344e+02  9.702907e+01 -2.366693e+01
     vertex -1.747324e+02  9.345494e+01 -2.299568e+01
     vertex -1.655704e+02  9.345494e+01 -1.843669e+01
   endloop
 endfacet
 facet normal -2.294003e-01  5.310388e-01  8.157042e-01
   outer loop
     vertex -1.494501e+02  8.870469e+01 -8.445329e+00
     vertex -1.624198e+02  8.870469e+01 -1.209279e+01
     vertex -1.636329e+02  8.301651e+01 -8.730835e+00
   endloop
 endfacet
 facet normal -8.549874e-02  5.300839e-01  8.436237e-01
   outer loop
     vertex -1.494501e+02  8.870469e+01 -8.445329e+00
     vertex -1.501672e+02  8.301651e+01 -4.943882e+00
     vertex -1.307000e+02  8.870469e+01 -6.545056e+00
   endloop
 endfacet
 facet normal -2.294003e-01  5.310388e-01  8.157042e-01
   outer loop
     vertex -1.494501e+02  8.870469e+01 -8.445329e+00
     vertex -1.636329e+02  8.301651e+01 -8.730835e+00
     vertex -1.501672e+02  8.301651e+01 -4.943882e+00
   endloop
 endfacet
 facet normal -1.950016e-01  8.466244e-01  4.951783e-01
   outer loop
     vertex -1.588769e+02  9.702907e+01 -2.191157e+01
     vertex -1.655704e+02  9.345494e+01 -1.843669e+01
     vertex -1.608075e+02  9.345494e+01 -1.656105e+01
   endloop
 endfacet
 facet normal -1.950016e-01  8.466244e-01  4.951783e-01
   outer loop
     vertex -1.588769e+02  9.702907e+01 -2.191157e+01
     vertex -1.633344e+02  9.702907e+01 -2.366693e+01
     vertex -1.655704e+02  9.345494e+01 -1.843669e+01
   endloop
 endfacet
 facet normal -4.996146e-02  9.936914e-01  1.004053e-01
   outer loop
     vertex -1.608417e+02  9.924784e+01 -2.949733e+01
     vertex -1.582175e+02  1.000000e+02 -3.563552e+01
     vertex -1.687613e+02  9.924784e+01 -3.343808e+01
   endloop
 endfacet
 facet normal -1.473554e-01  9.437115e-01  2.961334e-01
   outer loop
     vertex -1.608417e+02  9.924784e+01 -2.949733e+01
     vertex -1.687613e+02  9.924784e+01 -3.343808e+01
     vertex -1.719088e+02  9.702907e+01 -2.793357e+01
   endloop
 endfacet
 facet normal -1.473554e-01  9.437115e-01  2.961334e-01
   outer loop
     vertex -1.608417e+02  9.924784e+01 -2.949733e+01
     vertex -1.719088e+02  9.702907e+01 -2.793357e+01
     vertex -1.633344e+02  9.702907e+01 -2.366693e+01
   endloop
 endfacet
 facet normal -7.147984e-02  7.052980e-01  7.052980e-01
   outer loop
     vertex -1.484971e+02  9.345494e+01 -1.309899e+01
     vertex -1.307000e+02  8.870469e+01 -6.545056e+00
     vertex -1.307000e+02  9.345494e+01 -1.129531e+01
   endloop
 endfacet
 facet normal -1.916824e-01  7.061853e-01  6.815865e-01
   outer loop
     vertex -1.484971e+02  9.345494e+01 -1.309899e+01
     vertex -1.624198e+02  8.870469e+01 -1.209279e+01
     vertex -1.494501e+02  8.870469e+01 -8.445329e+00
   endloop
 endfacet
 facet normal -7.147984e-02  7.052980e-01  7.052980e-01
   outer loop
     vertex -1.484971e+02  9.345494e+01 -1.309899e+01
     vertex -1.494501e+02  8.870469e+01 -8.445329e+00
     vertex -1.307000e+02  8.870469e+01 -6.545056e+00
   endloop
 endfacet
 facet normal -1.916824e-01  7.061853e-01  6.815865e-01
   outer loop
     vertex -1.484971e+02  9.345494e+01 -1.309899e+01
     vertex -1.608075e+02  9.345494e+01 -1.656105e+01
     vertex -1.624198e+02  8.870469e+01 -1.209279e+01
   endloop
 endfacet
 facet normal -3.205774e-02  9.942121e-01  1.025410e-01
   outer loop
     vertex -1.567247e+02  9.924784e+01 -2.787604e+01
     vertex -1.447443e+02  1.000000e+02 -3.142335e+01
     vertex -1.582175e+02  1.000000e+02 -3.563552e+01
   endloop
 endfacet
 facet normal -4.104210e-02  9.937070e-01  1.042205e-01
   outer loop
     vertex -1.567247e+02  9.924784e+01 -2.787604e+01
     vertex -1.582175e+02  1.000000e+02 -3.563552e+01
     vertex -1.608417e+02  9.924784e+01 -2.949733e+01
   endloop
 endfacet
 facet normal -1.210634e-01  9.438404e-01  3.074230e-01
   outer loop
     vertex -1.567247e+02  9.924784e+01 -2.787604e+01
     vertex -1.633344e+02  9.702907e+01 -2.366693e+01
     vertex -1.588769e+02  9.702907e+01 -2.191157e+01
   endloop
 endfacet
 facet normal -1.210634e-01  9.438404e-01  3.074230e-01
   outer loop
     vertex -1.567247e+02  9.924784e+01 -2.787604e+01
     vertex -1.608417e+02  9.924784e+01 -2.949733e+01
     vertex -1.633344e+02  9.702907e+01 -2.366693e+01
   endloop
 endfacet
 facet normal -1.443047e-01  8.460990e-01  5.131205e-01
   outer loop
     vertex -1.473558e+02  9.702907e+01 -1.867151e+01
     vertex -1.608075e+02  9.345494e+01 -1.656105e+01
     vertex -1.484971e+02  9.345494e+01 -1.309899e+01
   endloop
 endfacet
 facet normal -5.384164e-02  8.454960e-01  5.312604e-01
   outer loop
     vertex -1.473558e+02  9.702907e+01 -1.867151e+01
     vertex -1.307000e+02  9.345494e+01 -1.129531e+01
     vertex -1.307000e+02  9.702907e+01 -1.698349e+01
   endloop
 endfacet
 facet normal -3.345406e-02  9.433550e-01  3.300942e-01
   outer loop
     vertex -1.473558e+02  9.702907e+01 -1.867151e+01
     vertex -1.307000e+02  9.702907e+01 -1.698349e+01
     vertex -1.307000e+02  9.924784e+01 -2.332437e+01
   endloop
 endfacet
 facet normal -5.384164e-02  8.454960e-01  5.312604e-01
   outer loop
     vertex -1.473558e+02  9.702907e+01 -1.867151e+01
     vertex -1.484971e+02  9.345494e+01 -1.309899e+01
     vertex -1.307000e+02  9.345494e+01 -1.129531e+01
   endloop
 endfacet
 facet normal -1.443047e-01  8.460990e-01  5.131205e-01
   outer loop
     vertex -1.473558e+02  9.702907e+01 -1.867151e+01
     vertex -1.588769e+02  9.702907e+01 -2.191157e+01
     vertex -1.608075e+02  9.345494e+01 -1.656105e+01
   endloop
 endfacet
 facet normal -8.962329e-02  9.436146e-01  3.186836e-01
   outer loop
     vertex -1.460836e+02  9.924784e+01 -2.488346e+01
     vertex -1.567247e+02  9.924784e+01 -2.787604e+01
     vertex -1.588769e+02  9.702907e+01 -2.191157e+01
   endloop
 endfacet
 facet normal -3.345406e-02  9.433550e-01  3.300942e-01
   outer loop
     vertex -1.460836e+02  9.924784e+01 -2.488346e+01
     vertex -1.473558e+02  9.702907e+01 -1.867151e+01
     vertex -1.307000e+02  9.924784e+01 -2.332437e+01
   endloop
 endfacet
 facet normal -1.134653e-02  9.936482e-01  1.119573e-01
   outer loop
     vertex -1.460836e+02  9.924784e+01 -2.488346e+01
     vertex -1.307000e+02  9.924784e+01 -2.332437e+01
     vertex -1.307000e+02  1.000000e+02 -3.000000e+01
   endloop
 endfacet
 facet normal -1.134653e-02  9.936482e-01  1.119573e-01
   outer loop
     vertex -1.460836e+02  9.924784e+01 -2.488346e+01
     vertex -1.307000e+02  1.000000e+02 -3.000000e+01
     vertex -1.447443e+02  1.000000e+02 -3.142335e+01
   endloop
 endfacet
 facet normal -3.038992e-02  9.936797e-01  1.080608e-01
   outer loop
     vertex -1.460836e+02  9.924784e+01 -2.488346e+01
     vertex -1.447443e+02  1.000000e+02 -3.142335e+01
     vertex -1.567247e+02  9.924784e+01 -2.787604e+01
   endloop
 endfacet
 facet normal -8.962329e-02  9.436146e-01  3.186836e-01
   outer loop
     vertex -1.460836e+02  9.924784e+01 -2.488346e+01
     vertex -1.588769e+02  9.702907e+01 -2.191157e+01
     vertex -1.473558e+02  9.702907e+01 -1.867151e+01
   endloop
 endfacet
endsolid
